<mxfile host="app.diagrams.net" modified="2020-12-16T16:44:52.775Z" agent="5.0 (Windows NT 10.0; Win64; x64) AppleWebKit/537.36 (KHTML, like Gecko) Chrome/87.0.4280.88 Safari/537.36" etag="h_U5foi2c3fAqRRsxMt5" version="13.10.0" type="github">
  <diagram id="ROwpo3-wsCRHsoDC81fe" name="Page-1">
    <mxGraphModel dx="2249" dy="774" grid="1" gridSize="10" guides="1" tooltips="1" connect="1" arrows="1" fold="1" page="1" pageScale="1" pageWidth="827" pageHeight="1169" math="0" shadow="0">
      <root>
        <mxCell id="0" />
        <mxCell id="1" parent="0" />
        <mxCell id="e_TVVg0x7N8KuTjc2__o-42" value="" style="rounded=1;whiteSpace=wrap;html=1;arcSize=5;strokeWidth=1;dashed=1;" vertex="1" parent="1">
          <mxGeometry x="-85" y="590" width="1170" height="490" as="geometry" />
        </mxCell>
        <mxCell id="e_TVVg0x7N8KuTjc2__o-36" value="" style="rounded=1;whiteSpace=wrap;html=1;arcSize=5;strokeWidth=1;dashed=1;" vertex="1" parent="1">
          <mxGeometry x="-80" y="80" width="1170" height="490" as="geometry" />
        </mxCell>
        <mxCell id="e_TVVg0x7N8KuTjc2__o-35" value="" style="rounded=1;whiteSpace=wrap;html=1;dashed=1;arcSize=5;" vertex="1" parent="1">
          <mxGeometry x="170" y="130" width="660" height="410" as="geometry" />
        </mxCell>
        <mxCell id="e_TVVg0x7N8KuTjc2__o-11" value="" style="rounded=1;whiteSpace=wrap;html=1;dashed=1;" vertex="1" parent="1">
          <mxGeometry x="200" y="360" width="590" height="150" as="geometry" />
        </mxCell>
        <mxCell id="e_TVVg0x7N8KuTjc2__o-16" value="Cloud Platform&amp;nbsp;" style="rounded=1;whiteSpace=wrap;html=1;verticalAlign=top;" vertex="1" parent="1">
          <mxGeometry x="230" y="380" width="540" height="120" as="geometry" />
        </mxCell>
        <mxCell id="e_TVVg0x7N8KuTjc2__o-1" value="" style="rounded=1;whiteSpace=wrap;html=1;dashed=1;" vertex="1" parent="1">
          <mxGeometry x="200" y="190" width="590" height="150" as="geometry" />
        </mxCell>
        <mxCell id="e_TVVg0x7N8KuTjc2__o-9" value="Analytic Cloud" style="rounded=1;whiteSpace=wrap;html=1;" vertex="1" parent="1">
          <mxGeometry x="640" y="280" width="100" height="40" as="geometry" />
        </mxCell>
        <mxCell id="e_TVVg0x7N8KuTjc2__o-8" value="IBP" style="rounded=1;whiteSpace=wrap;html=1;" vertex="1" parent="1">
          <mxGeometry x="610" y="250" width="100" height="40" as="geometry" />
        </mxCell>
        <mxCell id="e_TVVg0x7N8KuTjc2__o-4" value="" style="group" vertex="1" connectable="0" parent="1">
          <mxGeometry x="170" y="90" width="150" height="90" as="geometry" />
        </mxCell>
        <mxCell id="e_TVVg0x7N8KuTjc2__o-2" value="" style="ellipse;shape=cloud;whiteSpace=wrap;html=1;" vertex="1" parent="e_TVVg0x7N8KuTjc2__o-4">
          <mxGeometry width="150" height="90" as="geometry" />
        </mxCell>
        <mxCell id="e_TVVg0x7N8KuTjc2__o-3" value="" style="aspect=fixed;html=1;points=[];align=center;image;fontSize=12;image=img/lib/mscae/SAP_HANA_on_Azure.svg;" vertex="1" parent="e_TVVg0x7N8KuTjc2__o-4">
          <mxGeometry x="42.85714285714286" y="27.000000000000004" width="66.12244897959184" height="33.06122448979592" as="geometry" />
        </mxCell>
        <mxCell id="e_TVVg0x7N8KuTjc2__o-5" value="Sales Cloud" style="rounded=1;whiteSpace=wrap;html=1;" vertex="1" parent="1">
          <mxGeometry x="250" y="250" width="120" height="60" as="geometry" />
        </mxCell>
        <mxCell id="e_TVVg0x7N8KuTjc2__o-6" value="Service Cloud" style="rounded=1;whiteSpace=wrap;html=1;" vertex="1" parent="1">
          <mxGeometry x="390" y="250" width="120" height="60" as="geometry" />
        </mxCell>
        <mxCell id="e_TVVg0x7N8KuTjc2__o-7" value="CPQ" style="rounded=1;whiteSpace=wrap;html=1;" vertex="1" parent="1">
          <mxGeometry x="580" y="220" width="100" height="40" as="geometry" />
        </mxCell>
        <mxCell id="e_TVVg0x7N8KuTjc2__o-10" value="SAAS" style="text;html=1;align=center;verticalAlign=middle;resizable=0;points=[];autosize=1;fillColor=#ffffff;" vertex="1" parent="1">
          <mxGeometry x="240" y="180" width="50" height="20" as="geometry" />
        </mxCell>
        <mxCell id="e_TVVg0x7N8KuTjc2__o-12" value="PAAS" style="text;html=1;align=center;verticalAlign=middle;resizable=0;points=[];autosize=1;fillColor=#ffffff;" vertex="1" parent="1">
          <mxGeometry x="240" y="350" width="50" height="20" as="geometry" />
        </mxCell>
        <mxCell id="e_TVVg0x7N8KuTjc2__o-13" value="Cloud Platform Integration Services" style="rounded=1;whiteSpace=wrap;html=1;" vertex="1" parent="1">
          <mxGeometry x="240" y="410" width="120" height="60" as="geometry" />
        </mxCell>
        <mxCell id="e_TVVg0x7N8KuTjc2__o-18" value="" style="rounded=1;whiteSpace=wrap;html=1;dashed=1;" vertex="1" parent="1">
          <mxGeometry x="-61" y="190" width="170" height="200" as="geometry" />
        </mxCell>
        <mxCell id="e_TVVg0x7N8KuTjc2__o-19" value="Other SAAS/Third- Party" style="text;html=1;align=center;verticalAlign=middle;resizable=0;points=[];autosize=1;fillColor=#ffffff;" vertex="1" parent="1">
          <mxGeometry x="-61" y="180" width="150" height="20" as="geometry" />
        </mxCell>
        <mxCell id="e_TVVg0x7N8KuTjc2__o-20" value="HR Systems" style="rounded=1;whiteSpace=wrap;html=1;" vertex="1" parent="1">
          <mxGeometry x="-34" y="220" width="120" height="60" as="geometry" />
        </mxCell>
        <mxCell id="e_TVVg0x7N8KuTjc2__o-21" value="Partner Systems" style="rounded=1;whiteSpace=wrap;html=1;" vertex="1" parent="1">
          <mxGeometry x="-34" y="300" width="120" height="60" as="geometry" />
        </mxCell>
        <mxCell id="e_TVVg0x7N8KuTjc2__o-22" value="" style="rounded=1;whiteSpace=wrap;html=1;dashed=1;" vertex="1" parent="1">
          <mxGeometry x="900" y="190" width="170" height="200" as="geometry" />
        </mxCell>
        <mxCell id="e_TVVg0x7N8KuTjc2__o-23" value="IAAS" style="text;html=1;align=center;verticalAlign=middle;resizable=0;points=[];autosize=1;fillColor=#ffffff;" vertex="1" parent="1">
          <mxGeometry x="910" y="180" width="40" height="20" as="geometry" />
        </mxCell>
        <mxCell id="e_TVVg0x7N8KuTjc2__o-24" value="OTM" style="rounded=1;whiteSpace=wrap;html=1;" vertex="1" parent="1">
          <mxGeometry x="935" y="220" width="100" height="40" as="geometry" />
        </mxCell>
        <mxCell id="e_TVVg0x7N8KuTjc2__o-25" value="2020 Spaces" style="rounded=1;whiteSpace=wrap;html=1;" vertex="1" parent="1">
          <mxGeometry x="935" y="280" width="100" height="40" as="geometry" />
        </mxCell>
        <mxCell id="e_TVVg0x7N8KuTjc2__o-26" value="Stibo Step" style="rounded=1;whiteSpace=wrap;html=1;" vertex="1" parent="1">
          <mxGeometry x="935" y="340" width="100" height="40" as="geometry" />
        </mxCell>
        <mxCell id="e_TVVg0x7N8KuTjc2__o-30" value="Development Efficiency Suite" style="rounded=1;whiteSpace=wrap;html=1;" vertex="1" parent="1">
          <mxGeometry x="370" y="410" width="120" height="60" as="geometry" />
        </mxCell>
        <mxCell id="e_TVVg0x7N8KuTjc2__o-31" value="Digital Experience Suite" style="rounded=1;whiteSpace=wrap;html=1;" vertex="1" parent="1">
          <mxGeometry x="500" y="410" width="120" height="60" as="geometry" />
        </mxCell>
        <mxCell id="e_TVVg0x7N8KuTjc2__o-32" value="Digital Process Automation" style="rounded=1;whiteSpace=wrap;html=1;" vertex="1" parent="1">
          <mxGeometry x="630" y="410" width="120" height="60" as="geometry" />
        </mxCell>
        <mxCell id="e_TVVg0x7N8KuTjc2__o-37" value="&lt;font style=&quot;font-size: 24px&quot;&gt;Cloud&lt;/font&gt;" style="ellipse;shape=cloud;whiteSpace=wrap;html=1;fillColor=#ffffff;strokeWidth=3;" vertex="1" parent="1">
          <mxGeometry x="-61" y="40" width="120" height="80" as="geometry" />
        </mxCell>
        <mxCell id="e_TVVg0x7N8KuTjc2__o-41" value="" style="shape=image;html=1;verticalAlign=top;verticalLabelPosition=bottom;labelBackgroundColor=#ffffff;imageAspect=0;aspect=fixed;image=https://cdn1.iconfinder.com/data/icons/freeline/32/home_house_real_estate-128.png;dashed=1;fillColor=#ffffff;" vertex="1" parent="1">
          <mxGeometry x="-50" y="560" width="120" height="120" as="geometry" />
        </mxCell>
        <mxCell id="e_TVVg0x7N8KuTjc2__o-43" value="On &lt;br&gt;Prem" style="text;html=1;align=center;verticalAlign=middle;resizable=0;points=[];autosize=1;strokeWidth=3;fontSize=17;" vertex="1" parent="1">
          <mxGeometry x="-20" y="610" width="60" height="50" as="geometry" />
        </mxCell>
        <mxCell id="e_TVVg0x7N8KuTjc2__o-45" value="S/4 Hana Enterprise Management" style="rounded=1;whiteSpace=wrap;html=1;dashed=1;arcSize=5;verticalAlign=top;fontSize=17;" vertex="1" parent="1">
          <mxGeometry x="166" y="620" width="660" height="410" as="geometry" />
        </mxCell>
        <mxCell id="e_TVVg0x7N8KuTjc2__o-46" value="" style="aspect=fixed;html=1;points=[];align=center;image;fontSize=12;image=img/lib/mscae/SAP_HANA_on_Azure.svg;dashed=1;strokeWidth=3;fillColor=#ffffff;" vertex="1" parent="1">
          <mxGeometry x="190" y="610" width="100" height="50" as="geometry" />
        </mxCell>
        <mxCell id="e_TVVg0x7N8KuTjc2__o-48" value="Sales Cloud" style="rounded=1;whiteSpace=wrap;html=1;" vertex="1" parent="1">
          <mxGeometry x="250" y="710" width="120" height="60" as="geometry" />
        </mxCell>
      </root>
    </mxGraphModel>
  </diagram>
</mxfile>
